<global>
amp_veltrack=0
ampeg_release=0.25

<group>
group_label=PP
lpc_hicc1=63
lpc_locc1=0

<region>
hikey=a#2
hivel=127
lokey=a2
lovel=1
lpc=ObhZQi/+tcJRMCxCWUYSwvq7FUInH3nBDjWAQU7fUcE7OxVB0mOkwLhzHUGoTLDBakB5QYeSIkBrI0JA5CeAwNIeTcDVZDDAZjKYv3LbsUBT8IbASDQOQCQ+W773W9I9
lpc_rms=-38.94
pitch_keycenter=a#2
sample=Contrabass_nonvib_PP_A#2.opus

<region>
hikey=a#3
hivel=127
lokey=a3
lovel=1
lpc=YjLuQX3ygMLI6m5CCwtKwsSQGEJPj6LBfoyDQQj8lMHdYJpBd1ZMwdBRmkB6mPjAngA5QcitD8GepkBB1E8ZwakuMj5relW+clG0P5F8mz+qlBHAkFdJQPysDcDSJZM+
lpc_rms=-38.55
pitch_keycenter=a#3
sample=Contrabass_nonvib_PP_A#3.opus

<region>
hikey=a#4
hivel=127
lokey=a4
lovel=1
lpc=OENSQjgl18L0DuhCVzThwvQDuUKHVHLCoqYxQk9wHsINaxdC1NH9wUWqhEHsk1LBMaa0QD751UBsK6bAAPgyQdlfkcFNyDNBgaYcwPBJPz59h4C+cva/QJOaosBkay5A
lpc_rms=-26.77
offset=1275
pitch_keycenter=a#4
sample=Contrabass_nonvib_PP_A#4.opus

<region>
hivel=127
key=c2
lovel=1
lpc=5lC7QqTXJcOzxpZCW7Lzwe75zUFc5CVAFo0IQKjX4cDb9slAPLjnPWANAMEdt5W7XDADQW8C00Ai+No/doZ8wP7iFcE/FZDAsP4CQeAxrEBoIh/BUOndP0y7qsAUZeVA
lpc_rms=-40.15
sample=Contrabass_nonvib_PP_C2.opus

<region>
hikey=c3
hivel=127
lokey=b2
lovel=1
lpc=d4HpQq8bdMNj0TBDLJ7kwjfaoUIENGrBvZkeQGRvOsH9IrlB4NuPwTRLCEECkrLBLlSlQTsuFUFv9Ca/yzwywQ18LsDf7GDBlOlsQSdxE0HXJaPBPD2rQchkk8GjCAlB
lpc_rms=-32.83
pitch_keycenter=c3
sample=Contrabass_nonvib_PP_C3.opus

<region>
hikey=c4
hivel=127
lokey=b3
lovel=1
lpc=ibIyQmPD3MKAPfVCJ1LfwiaErUJ5bDnCaTTNQbiWxMGZ0OZBFgq8wfLqA0HvIVvAVihTQNuGMUB6HZs/O01gwAktP8Cgmpe/JGLdQN2rS8D00V2+kP59QMjk28DUOU9A
lpc_rms=-34.18
pitch_keycenter=c4
sample=Contrabass_nonvib_PP_C4.opus

<region>
hikey=c5
hivel=127
lokey=b4
lovel=1
lpc=NpGDQaGUAsKzag1CnAkJwkUD4UE6N5jB+6tcQXWUTsHUyUlBJZoLwT4mgkDUoQnAhFgIvTxnJ0C3DP+/qbJgQFiJzMAdn59A3CsNwPUDyT8kSja/qa3lPwd/or8C6FY/
lpc_rms=-35.73
offset=1698
pitch_keycenter=C5
sample=Contrabass_nonvib_PP_C5.opus

<region>
hikey=d2
hivel=127
lokey=c#2
lovel=1
lpc=nuvsQjJ5Y8Om+vpCVMpWwhFAF0J6M8y/Ea8BQWJ4C8GC4NVArycJQHETh8E/9bU/TiFnQa/Si0CAjLo/81UQwW6XD8F0zVM/VEgnQRig5kDm0pjBhDGbQFu738AwShNB
lpc_rms=-37.03
offset=183
pitch_keycenter=d2
sample=Contrabass_nonvib_PP_D2.opus

<region>
hikey=d3
hivel=127
lokey=c#3
lovel=1
lpc=uE6HQsbgF8Mg7wZDKjLEwlXVZULWupzA3BflwD35LsD5Z1pBt0wMwR93ncCiJtk/HvayQDKcm0Asl7W/9/dAv59sMcHST5Q/9AgQQULywL90tBPBQIBXQf7kXcEEo+ZA
lpc_rms=-37.79
offset=530
pitch_keycenter=d3
sample=Contrabass_nonvib_PP_D3.opus

<region>
hikey=d4
hivel=127
lokey=c#4
lovel=1
lpc=/psVQtT3uMJPxdtCpyzYwjE/rEKxlULCx0nTQY67qsEHtLtBBCmewWsiKUG8qrjASLVhvbKFMEF9FVzBZ+xsQYk6kMGH2fNAx/CaQDmZ3MCHPIxAgt0NP+bjvcBa0Y5A
lpc_rms=-35.41
pitch_keycenter=d4
sample=Contrabass_nonvib_PP_D4.opus

<region>
hikey=e2
hivel=127
lokey=d#2
lovel=1
lpc=U82WQkJ9D8NY5KBC3zUZwrwjz0HjCiI/cGSuQO2K/cD18YBAfsSiQFTCZMGn3DpA1KsHQR/qDL8jr45ARP7wwM1HhsBiOEFAf2trQKLO1kCotmHBz380QIOR6sCYwBJB
lpc_rms=-40.73
pitch_keycenter=e2
sample=Contrabass_nonvib_PP_E2.opus

<region>
hikey=e3
hivel=127
lokey=d#3
lovel=1
lpc=pb0jQrTtq8KbFpdCQwBpwqQm/kHxyhPAbNQ6wLWg2785c/NANU2HwHwwa8CrpFs+tal4QBrm+D9PdJQ/hEyqPm6A+sDUKpg/Gs6FQEvNvb9i4wfAo4aoQDOczMBXQ0VA
lpc_rms=-42.55
pitch_keycenter=e3
sample=Contrabass_nonvib_PP_E3.opus

<region>
hikey=e4
hivel=127
lokey=d#4
lovel=1
lpc=ISoEQjhLj8KIm5pC+I6Xwt1makJFrgfCQQe0QY48jcEWiWZB9K79wPwgOb8+dIVAjCKKwDWrz0B8KKnA66jAQFlwKcF8WvFAaWzav9rD+z7hv32/3fQhQE4nrcDhN4ZA
lpc_rms=-37.16
pitch_keycenter=e4
sample=Contrabass_nonvib_PP_E4.opus

<region>
hikey=f#2
hivel=127
lokey=f2
lovel=1
lpc=SeWAQheA9cKFgpxCREo6wkcVq0E2p/RATpf8PqBa3MD5NwlBfhzFvHe3wcANDP6/tQOiQIiq7z+9bgBASgD+PpNI6sC6rcm/JVV0QNExm77qOoTA9H/3QPRLC8HcyJ9A
lpc_rms=-41.73
pitch_keycenter=f#2
sample=Contrabass_nonvib_PP_F#2.opus

<region>
hikey=f#3
hivel=127
lokey=f3
lovel=1
lpc=kuYSQs5BqsKWkLZCe7qpwm1pckKb8dnBZBFCQTPy/sDq+TpBB74OwbTKxz82tc+/8ykHQEiGqkAZp53ADBjQQCeWUMEfpK5AEDsIQKQJhMCCt0pANohlPwUObsDNDh5A
lpc_rms=-39.27
pitch_keycenter=f#3
sample=Contrabass_nonvib_PP_F#3.opus

<region>
hikey=f#4
hivel=127
lokey=f4
lovel=1
lpc=dLkRQuWQqML4MrlCKxa0wj//jUJMpSXCFCLhQXOovcGBaalBACNbwSymX0ArAuk//6jUvqz9hkBiqbTAsALwQH3QasG+7kBBeT0BwVkwA0G6uQbBCJ8YQQ4kJ8Er2LVA
lpc_rms=-33.82
offset=882
pitch_keycenter=f#4
sample=Contrabass_nonvib_PP_F#4.opus

<region>
hikey=g#2
hivel=127
lokey=g2
lovel=1
lpc=MAhOQt7A0MLjlZhCLcsvwmsNlUF7ToRAyJ61PDFVx8CyMeNAUvvPvBROtMBfzbW9PHOBQArOyz+J2Xs/YDK8Ppvp2sCRCJO+sBJ0QLY2mL9+A4G/B7L5QCixFsFhAUVA
lpc_rms=-42.62
pitch_keycenter=g#2
sample=Contrabass_nonvib_PP_G#2.opus

<region>
hikey=g#3
hivel=127
lokey=g3
lovel=1
lpc=swcWQrQ1rMK3e7dCgT+pwrDTcUIYk9TBKTI5QZXLDMHX9ENBoXcZwc4CxT9gPQ7AoeMuQKLCgkA+ElLAZvO2QAY5QsFyrqZADEQyQCoZlMARuKRA8Dmgv0nUqL+1kHM+
lpc_rms=-39.09
pitch_keycenter=g#3
sample=Contrabass_nonvib_PP_G#3.opus

<region>
hikey=g#4
hivel=127
lokey=g4
lovel=1
lpc=ZGZ8Qh5PAMN6HQdDnDMBw2lczELAaIPCsWA+Qn2SFcKnJ/pB2L6OwRtTPj/NO3VAZe8kwc5wiEF4H2jB7JCdQWLC1sG7krJBTZiRwfFZg0GciYbBfVObQbrxgsGtvipB
lpc_rms=-29.71
offset=439
pitch_keycenter=g#4
sample=Contrabass_nonvib_PP_G#4.opus

<group>
group_label=FF
lpc_hicc1=127
lpc_locc1=64

<region>
hikey=a#2
hivel=127
lokey=a2
lovel=1
lpc=+rVCQpHy1cJSYMpCqLWuwotYeEJjbc3BjqqCQWddgsGowGpBbUcSwcSnKT6+Gos+UTxsQMATZ0ALcpDAafjEQBIkYMFM+PpAfuFJvTowtL/LxHU/g22RQB0nAcGay2BA
lpc_rms=-37.32
offset=403
pitch_keycenter=a#2
sample=Contrabass_nonvib_FF_A#2.opus

<region>
hikey=a#3
hivel=127
lokey=a3
lovel=1
lpc=mAsQQr8AqMJNwrNCfemywkqqlkKOniXCcLDFQfj8h8EqMlVBvbRmwd9REUHX8trAOF/fQIPaVEClgY7APeGhQMMRccHHaU1BomsmwaV4aUHNcTrB4NggQa2dN8Ee1apA
lpc_rms=-30.68
offset=698
pitch_keycenter=a#3
sample=Contrabass_nonvib_FF_A#3.opus

<region>
hikey=a#4
hivel=127
lokey=a4
lovel=1
lpc=M5BmQjdc6MKpTv9CrGMFwwjf1UJ6poLCkptHQsFJJ8K3bxpCn8EQwmK2q0HwJkvB8pWJP7iFVUF2dUzBQcySQaw2zcGtSJVBV+keweWLAkFWK1/AyFTKQHqRFsGCZbhA
lpc_rms=-14.93
offset=712
pitch_keycenter=a#4
sample=Contrabass_nonvib_FF_A#4.opus

<region>
hivel=127
key=c2
lovel=1
lpc=MAaYQotxJsN4vRFDWVrpwqiunULD9V3BX3kSQCICMcF7GQJBb4n7wDEdhD9Z9YBAKh2LQLYBdD7p4vo+WmknP2q8L8Fl4o5Az2orQBDexL/4IIbAfN0qQdYkU8HXLNJA
lpc_rms=-36.04
offset=1266
sample=Contrabass_nonvib_FF_C2.opus

<region>
hikey=c3
hivel=127
lokey=b2
lovel=1
lpc=656GQmjXDMPOvudCDwe/wtbTlkLs1v3B3lGbQWxykcHBtIBBdB+EwR2JnkFsKe3BpgsFQux/fMHu3VhB48+CwZKRI0A13rPAEjwjQbsLOsDW/JU/pDBIP0F8iMDTYwlA
lpc_rms=-32.04
pitch_keycenter=c3
sample=Contrabass_nonvib_FF_C3.opus

<region>
hikey=c4
hivel=127
lokey=b3
lovel=1
lpc=ih83Qlvi1MKns+ZCug/iwv65vUIbal7CGSQfQmQQGMIhIglCxMkJwglkxEGFL4jBIZ9eQVbJuD+xkG/ArUehQGX7j8EiVGNB6JT3wOOETkHrlSTB0EIfQRRsX8EPzNhA
lpc_rms=-25.42
offset=601
pitch_keycenter=c4
sample=Contrabass_nonvib_FF_C4.opus

<region>
hikey=c5
hivel=127
lokey=b4
lovel=1
lpc=pQtNQfYn6sEJMAxCDy8SwgrX/kHeT6jBg9hVQQxGFsG2Tv5AmcvOwG2ph0AYbjXAjxZPP6poDkDA8l7AiM6jQO2z/cBJsglBb3/pwGkW70CkK87Avu+ZQGpKicD3eSJA
lpc_rms=-28.85
offset=634
pitch_keycenter=C5
sample=Contrabass_nonvib_FF_C5.opus

<region>
hikey=d2
hivel=127
lokey=c#2
lovel=1
lpc=SEbZQj0yZMOs1DNDC5UFw7CStELUi6DBEHVEQSF9fsFqRXBBJLaIwLRmNMF2QxxADVLZQH8hs0AYSPhAeL/swHuDlcE02BVB1GpIQPS+KD8Q9svAkrsdQQy7dMF5dx5B
lpc_rms=-34.03
offset=621
pitch_keycenter=d2
sample=Contrabass_nonvib_FF_D2.opus

<region>
hikey=d3
hivel=127
lokey=c#3
lovel=1
lpc=zhB6QqyjEsNUUxpDK8YRw3qS6kIi6HLCNpUOQhrCA8LNHAtC6Q76wT9VnkGLG2TB6P0DQb2O0ECVg5jAm3reQNBMnsEOaVxB78q9wDn2mkAIhAXBQVA7QWW8JcFzB6VA
lpc_rms=-30.76
offset=338
pitch_keycenter=d3
sample=Contrabass_nonvib_FF_D3.opus

<region>
hikey=d4
hivel=127
lokey=c#4
lovel=1
lpc=CxXSQcLMecKRl45COqWRwsYQgkLALC3CxNX2QU/5ycGS1JdB745wwRWBAkEyaT7AiRtLvY73AkF/jy3BOlZHQZBljsGk7HdBT2c4wey1QEE1KCvBj/AMQdfyHMHKjrVA
lpc_rms=-30.44
pitch_keycenter=d4
sample=Contrabass_nonvib_FF_D4.opus

<region>
hikey=e2
hivel=127
lokey=d#2
lovel=1
lpc=94Z8QinoCMPKFedC4fCqwnfnXUJSjlbBXjwWQQdtgMGNYXhBPTbZwJFupMD07HlAbPRPQOTlYD+28GRAZukGwK5uRcEsNflAkRCmP/hL+L6qFyLAs9q7QK/cLMG7ctpA
lpc_rms=-37.83
pitch_keycenter=e2
sample=Contrabass_nonvib_FF_E2.opus

<region>
hikey=e3
hivel=127
lokey=d#3
lovel=1
lpc=LHAzQlekvsLSg7BC95KkwimKgEITlujBepyeQQvtf8FhWDFBKUQZwfCGa0CxioHA7R3+QLZpN8CUkDJAzZboPygLWcG6QT9B/kilwMZygUB0MxfA+MYsQIB9xMAzRGlA
lpc_rms=-34.38
offset=1722
pitch_keycenter=e3
sample=Contrabass_nonvib_FF_E3.opus

<region>
hikey=e4
hivel=127
lokey=d#4
lovel=1
lpc=z2IDQtAgksKp+6VClRGswr/ylEKoGknClcoNQq/q7MHtStFB7tq0wdLMa0E1SQDBf1YUv2awTUGc8YPBV96SQXxZqcH83ohBUlQrwaEkJkF22yLB2OgJQWlZG8FW0bpA
lpc_rms=-27.09
offset=787
pitch_keycenter=e4
sample=Contrabass_nonvib_FF_E4.opus

<region>
hikey=f#2
hivel=127
lokey=f2
lovel=1
lpc=eEK7QtD3QcPlnBdDHV/swrCyq0K2UKHB6VS5QAxNqsDfW6RAmI+qwPNAG8AxDIa/pp0GQVUKMUDfOX4+gni/v32bG8GMXX5A92EzQPw+TkALSBrBiIgeQZ+hlMEsuVJB
lpc_rms=-35.29
pitch_keycenter=f#2
sample=Contrabass_nonvib_FF_F#2.opus

<region>
hikey=f#3
hivel=127
lokey=f3
lovel=1
lpc=qaUvQoOA0MI1g95C6JLYwu61tkIvK0vCa4sAQk8IvMGEJY9BO/uNwfDlJUGs6dnAV8mRQIEJBkGB0BHBCtIWQX74jsFd2lBBy4/hwKmr/EC3NObAXxHgQEfiJsESf85A
lpc_rms=-34.68
offset=1691
pitch_keycenter=f#3
sample=Contrabass_nonvib_FF_F#3.opus

<region>
hikey=f#4
hivel=127
lokey=f4
lovel=1
lpc=fDLkQW5+dMK6aYlCWJyRwgxVcELFHR/CJFDrQXc+vsGmW7VBno6vwRNGg0FXeDzBHnf6QEaElT+qcyrAMFu/QK01OsESBgNBDfzKwBUvwkC41pnAJ3XOQGHC8cBRgYJA
lpc_rms=-24.74
offset=537
pitch_keycenter=f#4
sample=Contrabass_nonvib_FF_F#4.opus

<region>
hikey=g#2
hivel=127
lokey=g2
lovel=1
lpc=TqhlQtQr9cIbVNdCCUa1wpoOhkKnebrBDI4dQUGYBMGaUspAxX2LwL/FR8A+QNo/+LqUQEAMTD/uyTxAQv87wInqA8FOKAdBlol6wKR+kkBKfpjABwuRQNA4JsECz+hA
lpc_rms=-37.98
offset=318
pitch_keycenter=g#2
sample=Contrabass_nonvib_FF_G#2.opus

<region>
hikey=g#3
hivel=127
lokey=g3
lovel=1
lpc=XXj7Qeqlg8IPR2VCZD1KwpLLIULyCKPBBZutQWv4zMETgNBB5szIwcY7dkGUlkrBaERQQSOtwsDmZAFB88TkwOdVAMAlKUu/4jpoQHmafb9++Ns/AMPIP03sksABKAJA
lpc_rms=-35.08
pitch_keycenter=g#3
sample=Contrabass_nonvib_FF_G#3.opus

<region>
hikey=g#4
hivel=127
lokey=g4
lovel=1
lpc=oKgsQkSivcIZDNlCYzLdwv/Ku0KXsmjCJ8ciQn6WDMJsGPlBycHswc45nUGzyzLB1WuMP6PVVUHdCIHBHY+WQdNTyMENYpJBfnozwSiEUEGQglHBEspqQWB2icEL7DNB
lpc_rms=-19.50
offset=729
pitch_keycenter=g#4
sample=Contrabass_nonvib_FF_G#4.opus

